<?plantuml 1.2026.3beta3?><svg xmlns="http://www.w3.org/2000/svg" xmlns:xlink="http://www.w3.org/1999/xlink" contentStyleType="text/css" data-diagram-type="DESCRIPTION" height="289px" preserveAspectRatio="none" style="width:420px;height:289px;background:#FFFFFF;" version="1.1" viewBox="0 0 420 289" width="420px" zoomAndPan="magnify"><defs/><g><!--entity CompNot--><g class="entity" data-qualified-name="CompNot" data-source-line="6" id="ent0002"><rect fill="#F1F1F1" height="46.2969" rx="2.5" ry="2.5" style="stroke:#181818;stroke-width:0.5;" width="125.6816" x="58.78" y="219.59"/><rect fill="#F1F1F1" height="10" style="stroke:#181818;stroke-width:0.5;" width="15" x="164.4616" y="224.59"/><rect fill="#F1F1F1" height="2" style="stroke:#181818;stroke-width:0.5;" width="4" x="162.4616" y="226.59"/><rect fill="#F1F1F1" height="2" style="stroke:#181818;stroke-width:0.5;" width="4" x="162.4616" y="230.59"/><text fill="#000000" font-family="sans-serif" font-size="14" lengthAdjust="spacing" textLength="85.6816" x="73.78" y="252.5851">Notifica&#231;&#245;es</text></g><!--entity IMsg--><g class="entity" data-qualified-name="IMsg" data-source-line="7" id="ent0003"><ellipse cx="166.62" cy="136.44" fill="#F1F1F1" rx="8" ry="8" style="stroke:#181818;stroke-width:0.5;"/><text fill="#000000" font-family="sans-serif" font-size="14" lengthAdjust="spacing" textLength="85.1553" x="124.0424" y="166.4351">I.Mensagem</text></g><!--entity CompChat--><g class="entity" data-qualified-name="CompChat" data-source-line="8" id="ent0004"><rect fill="#F1F1F1" height="46.2969" rx="2.5" ry="2.5" style="stroke:#181818;stroke-width:0.5;" width="72.7168" x="334.26" y="113.3"/><rect fill="#F1F1F1" height="10" style="stroke:#181818;stroke-width:0.5;" width="15" x="386.9768" y="118.3"/><rect fill="#F1F1F1" height="2" style="stroke:#181818;stroke-width:0.5;" width="4" x="384.9768" y="120.3"/><rect fill="#F1F1F1" height="2" style="stroke:#181818;stroke-width:0.5;" width="4" x="384.9768" y="124.3"/><text fill="#000000" font-family="sans-serif" font-size="14" lengthAdjust="spacing" textLength="32.7168" x="349.26" y="146.2951">Chat</text></g><!--entity IChat--><g class="entity" data-qualified-name="IChat" data-source-line="9" id="ent0005"><ellipse cx="290.62" cy="136.44" fill="#F1F1F1" rx="8" ry="8" style="stroke:#181818;stroke-width:0.5;"/><text fill="#000000" font-family="sans-serif" font-size="14" lengthAdjust="spacing" textLength="41.2959" x="269.9721" y="166.4351">I.Chat</text></g><!--entity CompCan--><g class="entity" data-qualified-name="CompCan" data-source-line="10" id="ent0006"><rect fill="#F1F1F1" height="46.2969" rx="2.5" ry="2.5" style="stroke:#181818;stroke-width:0.5;" width="133.4609" x="24.89" y="7"/><rect fill="#F1F1F1" height="10" style="stroke:#181818;stroke-width:0.5;" width="15" x="138.3509" y="12"/><rect fill="#F1F1F1" height="2" style="stroke:#181818;stroke-width:0.5;" width="4" x="136.3509" y="14"/><rect fill="#F1F1F1" height="2" style="stroke:#181818;stroke-width:0.5;" width="4" x="136.3509" y="18"/><text fill="#000000" font-family="sans-serif" font-size="14" lengthAdjust="spacing" textLength="93.4609" x="39.89" y="39.9951">Candidaturas</text></g><!--entity ICan--><g class="entity" data-qualified-name="ICan" data-source-line="11" id="ent0007"><ellipse cx="228.62" cy="242.74" fill="#F1F1F1" rx="8" ry="8" style="stroke:#181818;stroke-width:0.5;"/><text fill="#000000" font-family="sans-serif" font-size="14" lengthAdjust="spacing" textLength="94.7461" x="181.247" y="272.7351">I.Candidatura</text></g><!--entity CompDem--><g class="entity" data-qualified-name="CompDem" data-source-line="12" id="ent0008"><rect fill="#F1F1F1" height="46.2969" rx="2.5" ry="2.5" style="stroke:#181818;stroke-width:0.5;" width="115.2432" x="7" y="113.3"/><rect fill="#F1F1F1" height="10" style="stroke:#181818;stroke-width:0.5;" width="15" x="102.2432" y="118.3"/><rect fill="#F1F1F1" height="2" style="stroke:#181818;stroke-width:0.5;" width="4" x="100.2432" y="120.3"/><rect fill="#F1F1F1" height="2" style="stroke:#181818;stroke-width:0.5;" width="4" x="100.2432" y="124.3"/><text fill="#000000" font-family="sans-serif" font-size="14" lengthAdjust="spacing" textLength="75.2432" x="22" y="146.2951">Demandas</text></g><!--entity IDem--><g class="entity" data-qualified-name="IDem" data-source-line="13" id="ent0009"><ellipse cx="202.62" cy="30.15" fill="#F1F1F1" rx="8" ry="8" style="stroke:#181818;stroke-width:0.5;"/><text fill="#000000" font-family="sans-serif" font-size="14" lengthAdjust="spacing" textLength="83.8223" x="160.7089" y="60.1451">I.Demandas</text></g><!--link IChat to CompChat--><g class="link" data-entity-1="ent0005" data-entity-2="ent0004" data-link-type="association" data-source-line="16" id="lnk11"><path d="M300,136.44 C311.31,136.44 322.62,136.44 333.93,136.44" fill="none" id="IChat-CompChat" style="stroke:#181818;stroke-width:1;"/></g><!--link CompCan to ICan--><g class="link" data-entity-1="ent0006" data-entity-2="ent0007" data-link-type="association" data-source-line="17" id="lnk12"><path d="M129.72,53.74 C151.11,68.25 176.63,88.92 192.62,113.3 C218.79,153.19 226.15,212.05 228.03,233.52" fill="none" id="CompCan-ICan" style="stroke:#181818;stroke-width:1;"/></g><!--link CompCan to IDem--><g class="link" data-entity-1="ent0006" data-entity-2="ent0009" data-source-line="18" id="lnk13"><path d="M158.83,30.15 C170.35,30.15 171.87,30.15 183.38,30.15" fill="none" id="CompCan-to-IDem" style="stroke:#181818;stroke-width:1;"/><path d="M190.3018,21.6928 A9,9 0 0 0 190.3018 38.6072" fill="none" style="stroke:#181818;stroke-width:1.5;"/></g><!--link IMsg to CompNot--><g class="link" data-entity-1="ent0003" data-entity-2="ent0002" data-link-type="association" data-source-line="19" id="lnk15"><path d="M163.09,145.63 C156.34,161.28 141.37,195.97 131.39,219.1" fill="none" id="IMsg-CompNot" style="stroke:#181818;stroke-width:1;"/></g><!--link CompNot to ICan--><g class="link" data-entity-1="ent0002" data-entity-2="ent0007" data-source-line="20" id="lnk16"><path d="M184.73,242.74 C196.28,242.74 197.82,242.74 209.36,242.74" fill="none" id="CompNot-to-ICan" style="stroke:#181818;stroke-width:1;"/><path d="M216.2818,234.2828 A9,9 0 0 0 216.2818 251.1972" fill="none" style="stroke:#181818;stroke-width:1.5;"/></g><!--link CompDem to IChat--><g class="link" data-entity-1="ent0008" data-entity-2="ent0005" data-source-line="21" id="lnk17"><path d="M95.76,113.07 C112.9,101.67 135.11,89.17 157.12,83.3 C191.48,74.13 204.25,69.74 237.12,83.3 C258.67,92.18 270.5056,106.1248 279.1356,118.8448" fill="none" id="CompDem-to-IChat" style="stroke:#181818;stroke-width:1;"/><path d="M290.0203,119.8245 A9,9 0 0 0 276.0233 129.321" fill="none" style="stroke:#181818;stroke-width:1.5;"/></g><!--link CompDem to IMsg--><g class="link" data-entity-1="ent0008" data-entity-2="ent0003" data-source-line="22" id="lnk18"><path d="M122.4,136.44 C134.03,136.44 135.66,136.44 147.29,136.44" fill="none" id="CompDem-to-IMsg" style="stroke:#181818;stroke-width:1;"/><path d="M154.2118,127.9828 A9,9 0 0 0 154.2118 144.8972" fill="none" style="stroke:#181818;stroke-width:1.5;"/></g><!--link CompDem to ICan--><g class="link" data-entity-1="ent0008" data-entity-2="ent0007" data-source-line="23" id="lnk19"><path d="M105.77,160.01 C133.51,175.73 170.56,197.72 201.62,219.59 C207.77,223.92 206.698,222.7532 211.788,227.1032" fill="none" id="CompDem-to-ICan" style="stroke:#181818;stroke-width:1;"/><path d="M222.5445,225.1709 A9,9 0 0 0 211.5554 238.0294" fill="none" style="stroke:#181818;stroke-width:1.5;"/></g><!--link IDem to CompDem--><g class="link" data-entity-1="ent0009" data-entity-2="ent0008" data-link-type="association" data-source-line="24" id="lnk21"><path d="M193.22,39.05 C188.07,43.33 181.55,48.67 175.62,53.3 C149.15,73.93 118.43,96.56 96.03,112.84" fill="none" id="IDem-CompDem" style="stroke:#181818;stroke-width:1;"/></g><?plantuml-src PP0zRiCm38LtdOBmKdTGXruXMGGqNN82mg9JeVg39QFeUJha13b1BbR5icIvtSJ7zprI39_AUfpGmE2CTvPiFCTlJJ0R_ShO4nnfL5RTh_SV1n8321jf6d6W0DB1MOL81g5_Srehxtnu_WUv08UIJO7LET2zkwX6DM0otYXqWDcPPARA6EZ4oubim0kPnI5EuTA673umLlHHxDdQ5akl1T5A9J7E4swpa_Y7trnhJ78qASVqVIkRX2Ji4tOEyMWpLdO5hccCV5rkNG2uT5-Mvr5LwpEx7WZux7c-HLNwZKZEN9VO8XIW6bfWYKolNm00?></g></svg>