<?plantuml 1.2026.3beta3?><svg xmlns="http://www.w3.org/2000/svg" xmlns:xlink="http://www.w3.org/1999/xlink" contentStyleType="text/css" data-diagram-type="DESCRIPTION" height="275px" preserveAspectRatio="none" style="width:625px;height:275px;background:#FFFFFF;" version="1.1" viewBox="0 0 625 275" width="625px" zoomAndPan="magnify"><defs/><g><!--entity IDem--><g class="entity" data-qualified-name="IDem" data-source-line="4" id="ent0002"><ellipse cx="184.73" cy="136.44" fill="#F1F1F1" rx="8" ry="8" style="stroke:#181818;stroke-width:0.5;"/><text fill="#000000" font-family="sans-serif" font-size="14" lengthAdjust="spacing" textLength="83.8223" x="142.8189" y="166.4351">I.Demandas</text></g><!--entity IChat--><g class="entity" data-qualified-name="IChat" data-source-line="5" id="ent0003"><ellipse cx="388.73" cy="136.44" fill="#F1F1F1" rx="8" ry="8" style="stroke:#181818;stroke-width:0.5;"/><text fill="#000000" font-family="sans-serif" font-size="14" lengthAdjust="spacing" textLength="41.2959" x="368.0821" y="166.4351">I.Chat</text></g><!--entity ICan--><g class="entity" data-qualified-name="ICan" data-source-line="6" id="ent0004"><ellipse cx="179.73" cy="228.59" fill="#F1F1F1" rx="8" ry="8" style="stroke:#181818;stroke-width:0.5;"/><text fill="#000000" font-family="sans-serif" font-size="14" lengthAdjust="spacing" textLength="94.7461" x="132.357" y="258.5851">I.Candidatura</text></g><!--entity IMsg--><g class="entity" data-qualified-name="IMsg" data-source-line="7" id="ent0005"><ellipse cx="441.73" cy="136.44" fill="#F1F1F1" rx="8" ry="8" style="stroke:#181818;stroke-width:0.5;"/><text fill="#000000" font-family="sans-serif" font-size="14" lengthAdjust="spacing" textLength="85.1553" x="399.1524" y="166.4351">I.Mensagem</text></g><!--entity CompDem--><g class="entity" data-qualified-name="CompDem" data-source-line="10" id="ent0006"><rect fill="#F1F1F1" height="46.2969" rx="2.5" ry="2.5" style="stroke:#181818;stroke-width:0.5;" width="115.2432" x="229.11" y="113.29"/><rect fill="#F1F1F1" height="10" style="stroke:#181818;stroke-width:0.5;" width="15" x="324.3532" y="118.29"/><rect fill="#F1F1F1" height="2" style="stroke:#181818;stroke-width:0.5;" width="4" x="322.3532" y="120.29"/><rect fill="#F1F1F1" height="2" style="stroke:#181818;stroke-width:0.5;" width="4" x="322.3532" y="124.29"/><text fill="#000000" font-family="sans-serif" font-size="14" lengthAdjust="spacing" textLength="75.2432" x="244.11" y="146.2851">Demandas</text></g><!--entity CompCan--><g class="entity" data-qualified-name="CompCan" data-source-line="11" id="ent0007"><rect fill="#F1F1F1" height="46.2969" rx="2.5" ry="2.5" style="stroke:#181818;stroke-width:0.5;" width="133.4609" x="7" y="113.29"/><rect fill="#F1F1F1" height="10" style="stroke:#181818;stroke-width:0.5;" width="15" x="120.4609" y="118.29"/><rect fill="#F1F1F1" height="2" style="stroke:#181818;stroke-width:0.5;" width="4" x="118.4609" y="120.29"/><rect fill="#F1F1F1" height="2" style="stroke:#181818;stroke-width:0.5;" width="4" x="118.4609" y="124.29"/><text fill="#000000" font-family="sans-serif" font-size="14" lengthAdjust="spacing" textLength="93.4609" x="22" y="146.2851">Candidaturas</text></g><!--entity CompNot--><g class="entity" data-qualified-name="CompNot" data-source-line="12" id="ent0008"><rect fill="#F1F1F1" height="46.2969" rx="2.5" ry="2.5" style="stroke:#181818;stroke-width:0.5;" width="125.6816" x="485.89" y="113.29"/><rect fill="#F1F1F1" height="10" style="stroke:#181818;stroke-width:0.5;" width="15" x="591.5716" y="118.29"/><rect fill="#F1F1F1" height="2" style="stroke:#181818;stroke-width:0.5;" width="4" x="589.5716" y="120.29"/><rect fill="#F1F1F1" height="2" style="stroke:#181818;stroke-width:0.5;" width="4" x="589.5716" y="124.29"/><text fill="#000000" font-family="sans-serif" font-size="14" lengthAdjust="spacing" textLength="85.6816" x="500.89" y="146.2851">Notifica&#231;&#245;es</text></g><!--entity CompChat--><g class="entity" data-qualified-name="CompChat" data-source-line="13" id="ent0009"><rect fill="#F1F1F1" height="46.2969" rx="2.5" ry="2.5" style="stroke:#181818;stroke-width:0.5;" width="72.7168" x="352.37" y="7"/><rect fill="#F1F1F1" height="10" style="stroke:#181818;stroke-width:0.5;" width="15" x="405.0868" y="12"/><rect fill="#F1F1F1" height="2" style="stroke:#181818;stroke-width:0.5;" width="4" x="403.0868" y="14"/><rect fill="#F1F1F1" height="2" style="stroke:#181818;stroke-width:0.5;" width="4" x="403.0868" y="18"/><text fill="#000000" font-family="sans-serif" font-size="14" lengthAdjust="spacing" textLength="32.7168" x="367.37" y="39.9951">Chat</text></g><!--link CompDem to IChat--><g class="link" data-entity-1="ent0006" data-entity-2="ent0003" data-source-line="16" id="lnk10"><path d="M344.5,136.44 C356.14,136.44 357.77,136.44 369.4,136.44" fill="none" id="CompDem-to-IChat" style="stroke:#181818;stroke-width:1;"/><path d="M376.3218,127.9828 A9,9 0 0 0 376.3218 144.8972" fill="none" style="stroke:#181818;stroke-width:1.5;"/></g><!--link CompDem to ICan--><g class="link" data-entity-1="ent0006" data-entity-2="ent0004" data-source-line="17" id="lnk11"><path d="M260.01,159.96 C236.86,179.46 212.3365,200.1155 196.6865,213.3055" fill="none" id="CompDem-to-ICan" style="stroke:#181818;stroke-width:1;"/><path d="M196.844,224.233 A9,9 0 0 0 185.9434 211.2995" fill="none" style="stroke:#181818;stroke-width:1.5;"/></g><!--link CompDem to IMsg--><g class="link" data-entity-1="ent0006" data-entity-2="ent0005" data-source-line="18" id="lnk12"><path d="M318.24,113.06 C335.57,101.66 358.03,89.16 380.23,83.29 C387.96,81.25 391,79.87 398.23,83.29 C417.41,92.38 426.3964,105.6269 432.8664,118.2769" fill="none" id="CompDem-to-IMsg" style="stroke:#181818;stroke-width:1;"/><path d="M443.5479,120.5884 A9,9 0 0 0 428.4888 128.2905" fill="none" style="stroke:#181818;stroke-width:1.5;"/></g><!--link IDem to CompDem--><g class="link" data-entity-1="ent0002" data-entity-2="ent0006" data-link-type="association" data-source-line="19" id="lnk14"><path d="M193.89,136.44 C205.5,136.44 217.1,136.44 228.71,136.44" fill="none" id="IDem-CompDem" style="stroke:#181818;stroke-width:1;"/></g><!--link CompChat to IChat--><g class="link" data-entity-1="ent0009" data-entity-2="ent0003" data-link-type="association" data-source-line="20" id="lnk15"><path d="M388.73,53.78 C388.73,76.78 388.73,111.22 388.73,126.99" fill="none" id="CompChat-IChat" style="stroke:#181818;stroke-width:1;"/></g><!--link CompCan to ICan--><g class="link" data-entity-1="ent0007" data-entity-2="ent0004" data-link-type="association" data-source-line="21" id="lnk16"><path d="M100.21,159.96 C123.02,179.36 154.66,206.27 170.26,219.54" fill="none" id="CompCan-ICan" style="stroke:#181818;stroke-width:1;"/></g><!--link CompCan to IDem--><g class="link" data-entity-1="ent0007" data-entity-2="ent0002" data-source-line="22" id="lnk17"><path d="M140.94,136.44 C152.46,136.44 153.97,136.44 165.49,136.44" fill="none" id="CompCan-to-IDem" style="stroke:#181818;stroke-width:1;"/><path d="M172.4118,127.9828 A9,9 0 0 0 172.4118 144.8972" fill="none" style="stroke:#181818;stroke-width:1.5;"/></g><!--link CompCan to IMsg--><g class="link" data-entity-1="ent0007" data-entity-2="ent0005" data-source-line="23" id="lnk18"><path d="M108.59,113.04 C127.68,101.63 152.28,89.13 176.23,83.29 C272.09,59.92 309.06,41.05 398.23,83.29 C417.41,92.38 426.3964,105.6269 432.8664,118.2769" fill="none" id="CompCan-to-IMsg" style="stroke:#181818;stroke-width:1;"/><path d="M443.5479,120.5884 A9,9 0 0 0 428.4888 128.2905" fill="none" style="stroke:#181818;stroke-width:1.5;"/></g><!--link IMsg to CompNot--><g class="link" data-entity-1="ent0005" data-entity-2="ent0008" data-link-type="association" data-source-line="24" id="lnk20"><path d="M450.93,136.44 C462.51,136.44 474.1,136.44 485.69,136.44" fill="none" id="IMsg-CompNot" style="stroke:#181818;stroke-width:1;"/></g><?plantuml-src PL0nRiCm3Dpr2i9BtS4T-eLa2T1qoGi8cqw5IfHXAIZodWnzGL-GZvMA9LjgD_7kUBoJ_zGyuOmMUcSdnyJX5Aw6u6BDgr9FiATHixv_tsyE1lHmu43pY3rv61oSj0za4TetPuoUtEIVbSuAQ0ulUs5PzXg8kpBLzEu3mqB5rnzE5lM0uJ9ZaY3NYYEnnpFPXJxwyx_0piCkzoAlrexGLC6Y9cOh-EBwfea92isx2thKFSgn7zfK0bTEkUF38TPKAXs4hatDAq2kb7Cijiw6nj0jFvdze1lS5tU5apXiO79xO6sncURiBgbNTy5-0G00?></g></svg>